<?xml version="1.0" encoding="UTF-8" standalone="no"?>
<!DOCTYPE svg PUBLIC "-//W3C//DTD SVG 1.1//EN"
 "http://www.w3.org/Graphics/SVG/1.1/DTD/svg11.dtd">
<!-- Generated by graphviz version 2.36.0 (20140111.2315)
 -->
<!-- Title: G Pages: 1 -->
<svg width="1086pt" height="384pt"
 viewBox="0.00 0.00 1086.00 384.00" xmlns="http://www.w3.org/2000/svg" xmlns:xlink="http://www.w3.org/1999/xlink">
<g id="graph0" class="graph" transform="scale(1 1) rotate(0) translate(4 380)">
<title>G</title>
<polygon fill="white" stroke="none" points="-4,4 -4,-380 1082,-380 1082,4 -4,4"/>
<g id="clust1" class="cluster"><title>cluster_Global</title>
<path fill="none" stroke="gray" d="M187,-98C187,-98 1058,-98 1058,-98 1064,-98 1070,-104 1070,-110 1070,-110 1070,-356 1070,-356 1070,-362 1064,-368 1058,-368 1058,-368 187,-368 187,-368 181,-368 175,-362 175,-356 175,-356 175,-110 175,-110 175,-104 181,-98 187,-98"/>
<text text-anchor="middle" x="622.5" y="-355.2" font-family="Times,serif" font-size="11.00" fill="gray">Global</text>
</g>
<g id="clust2" class="cluster"><title>cluster_\com</title>
<path fill="none" stroke="gray" d="M195,-106C195,-106 1050,-106 1050,-106 1056,-106 1062,-112 1062,-118 1062,-118 1062,-328 1062,-328 1062,-334 1056,-340 1050,-340 1050,-340 195,-340 195,-340 189,-340 183,-334 183,-328 183,-328 183,-118 183,-118 183,-112 189,-106 195,-106"/>
<text text-anchor="middle" x="622.5" y="-327.2" font-family="Times,serif" font-size="11.00" fill="gray">com</text>
</g>
<g id="clust3" class="cluster"><title>cluster_\com\xcitestudios</title>
<path fill="none" stroke="gray" d="M203,-114C203,-114 1042,-114 1042,-114 1048,-114 1054,-120 1054,-126 1054,-126 1054,-300 1054,-300 1054,-306 1048,-312 1042,-312 1042,-312 203,-312 203,-312 197,-312 191,-306 191,-300 191,-300 191,-126 191,-126 191,-120 197,-114 203,-114"/>
<text text-anchor="middle" x="622.5" y="-299.2" font-family="Times,serif" font-size="11.00" fill="gray">xcitestudios</text>
</g>
<g id="clust4" class="cluster"><title>cluster_\com\xcitestudios\Logging</title>
<path fill="none" stroke="gray" d="M211,-122C211,-122 1034,-122 1034,-122 1040,-122 1046,-128 1046,-134 1046,-134 1046,-272 1046,-272 1046,-278 1040,-284 1034,-284 1034,-284 211,-284 211,-284 205,-284 199,-278 199,-272 199,-272 199,-134 199,-134 199,-128 205,-122 211,-122"/>
<text text-anchor="middle" x="622.5" y="-271.2" font-family="Times,serif" font-size="11.00" fill="gray">Logging</text>
</g>
<g id="clust5" class="cluster"><title>cluster_\com\xcitestudios\Logging\Interfaces</title>
<path fill="none" stroke="gray" d="M219,-130C219,-130 870,-130 870,-130 876,-130 882,-136 882,-142 882,-142 882,-244 882,-244 882,-250 876,-256 870,-256 870,-256 219,-256 219,-256 213,-256 207,-250 207,-244 207,-244 207,-142 207,-142 207,-136 213,-130 219,-130"/>
<text text-anchor="middle" x="544.5" y="-243.2" font-family="Times,serif" font-size="11.00" fill="gray">Interfaces</text>
</g>
<!-- \\com\\xcitestudios\\Logging\\Interfaces\\LoggerInterface -->
<g id="node1" class="node"><title>\\com\\xcitestudios\\Logging\\Interfaces\\LoggerInterface</title>
<polygon fill="none" stroke="black" points="820,-228 702,-228 702,-192 820,-192 820,-228"/>
<text text-anchor="middle" x="761" y="-207.2" font-family="Courier,monospace" font-size="11.00">LoggerInterface</text>
</g>
<!-- \\com\\xcitestudios\\Logging\\Interfaces\\LogMessageInterface -->
<g id="node2" class="node"><title>\\com\\xcitestudios\\Logging\\Interfaces\\LogMessageInterface</title>
<polygon fill="none" stroke="black" points="360.5,-174 215.5,-174 215.5,-138 360.5,-138 360.5,-174"/>
<text text-anchor="middle" x="288" y="-153.2" font-family="Courier,monospace" font-size="11.00">LogMessageInterface</text>
</g>
<!-- \\com\\xcitestudios\\Logging\\Interfaces\\LogMessageSerializableInterface -->
<g id="node3" class="node"><title>\\com\\xcitestudios\\Logging\\Interfaces\\LogMessageSerializableInterface</title>
<polygon fill="none" stroke="black" points="874,-174 648,-174 648,-138 874,-138 874,-174"/>
<text text-anchor="middle" x="761" y="-153.2" font-family="Courier,monospace" font-size="11.00">LogMessageSerializableInterface</text>
</g>
<!-- \\com\\xcitestudios\\Logging\\Interfaces\\LogMessageSerializableInterface&#45;&gt;\\com\\xcitestudios\\Logging\\Interfaces\\LogMessageInterface -->
<g id="edge5" class="edge"><title>\\com\\xcitestudios\\Logging\\Interfaces\\LogMessageSerializableInterface&#45;&gt;\\com\\xcitestudios\\Logging\\Interfaces\\LogMessageInterface</title>
<path fill="none" stroke="black" d="M647.782,-156C562.631,-156 447.532,-156 370.908,-156"/>
<polygon fill="none" stroke="black" points="370.826,-152.5 360.826,-156 370.826,-159.5 370.826,-152.5"/>
</g>
<!-- \\com\\xcitestudios\\Generic\\Data\\Manipulation\\Interfaces\\SerializationInterface -->
<g id="node8" class="node"><title>\\com\\xcitestudios\\Generic\\Data\\Manipulation\\Interfaces\\SerializationInterface</title>
<ellipse fill="none" stroke="black" cx="288" cy="-72" rx="287.849" ry="18"/>
<text text-anchor="middle" x="288" y="-68.3" font-family="Times,serif" font-size="14.00" fill="gray">\com\xcitestudios\Generic\Data\Manipulation\Interfaces\SerializationInterface</text>
</g>
<!-- \\com\\xcitestudios\\Logging\\Interfaces\\LogMessageSerializableInterface&#45;&gt;\\com\\xcitestudios\\Generic\\Data\\Manipulation\\Interfaces\\SerializationInterface -->
<g id="edge6" class="edge"><title>\\com\\xcitestudios\\Logging\\Interfaces\\LogMessageSerializableInterface&#45;&gt;\\com\\xcitestudios\\Generic\\Data\\Manipulation\\Interfaces\\SerializationInterface</title>
<path fill="none" stroke="black" d="M658.959,-137.98C580.934,-124.065 473.297,-104.868 394.237,-90.7684"/>
<polygon fill="none" stroke="black" points="394.713,-87.2982 384.254,-88.988 393.484,-94.1894 394.713,-87.2982"/>
</g>
<!-- \\com\\xcitestudios\\Logging\\LogMessage -->
<g id="node4" class="node"><title>\\com\\xcitestudios\\Logging\\LogMessage</title>
<polygon fill="none" stroke="black" points="1034,-220 950,-220 950,-184 1034,-184 1034,-220"/>
<text text-anchor="middle" x="992" y="-199.2" font-family="Courier,monospace" font-size="11.00">LogMessage</text>
</g>
<!-- \\com\\xcitestudios\\Logging\\LogMessage&#45;&gt;\\com\\xcitestudios\\Logging\\Interfaces\\LogMessageSerializableInterface -->
<g id="edge1" class="edge"><title>\\com\\xcitestudios\\Logging\\LogMessage&#45;&gt;\\com\\xcitestudios\\Logging\\Interfaces\\LogMessageSerializableInterface</title>
<path fill="none" stroke="black" stroke-dasharray="1,5" d="M949.795,-193.723C925.162,-188.775 892.72,-182.258 861.744,-176.036"/>
<polygon fill="none" stroke="black" points="862.243,-172.566 851.75,-174.028 860.864,-179.429 862.243,-172.566"/>
</g>
<!-- \\JsonSerializable -->
<g id="node6" class="node"><title>\\JsonSerializable</title>
<ellipse fill="none" stroke="black" cx="761" cy="-72" rx="70.3881" ry="18"/>
<text text-anchor="middle" x="761" y="-68.3" font-family="Times,serif" font-size="14.00" fill="gray">\JsonSerializable</text>
</g>
<!-- \\com\\xcitestudios\\Logging\\LogMessage&#45;&gt;\\JsonSerializable -->
<g id="edge2" class="edge"><title>\\com\\xcitestudios\\Logging\\LogMessage&#45;&gt;\\JsonSerializable</title>
<path fill="none" stroke="black" stroke-dasharray="1,5" d="M959.726,-183.86C955.07,-180.981 950.37,-177.97 946,-175 916.371,-154.863 912.761,-144.361 882,-126 859.343,-112.476 832.703,-100.163 810.287,-90.7216"/>
<polygon fill="none" stroke="black" points="811.541,-87.4524 800.963,-86.8558 808.86,-93.9188 811.541,-87.4524"/>
</g>
<!-- \\com\\xcitestudios\\Logging\\LogSeverity -->
<g id="node5" class="node"><title>\\com\\xcitestudios\\Logging\\LogSeverity</title>
<polygon fill="none" stroke="black" points="1037.5,-166 946.5,-166 946.5,-130 1037.5,-130 1037.5,-166"/>
<text text-anchor="middle" x="992" y="-145.2" font-family="Courier,monospace" font-size="11.00">LogSeverity</text>
</g>
<!-- \\com\\xcitestudios\\Logging\\LogSeverity&#45;&gt;\\JsonSerializable -->
<g id="edge4" class="edge"><title>\\com\\xcitestudios\\Logging\\LogSeverity&#45;&gt;\\JsonSerializable</title>
<path fill="none" stroke="black" stroke-dasharray="1,5" d="M946.303,-133.166C908.425,-120.595 854.066,-102.555 814.197,-89.3231"/>
<polygon fill="none" stroke="black" points="815.242,-85.9821 804.648,-86.1541 813.037,-92.6258 815.242,-85.9821"/>
</g>
<!-- \\SplEnum -->
<g id="node7" class="node"><title>\\SplEnum</title>
<ellipse fill="none" stroke="black" cx="761" cy="-18" rx="46.2923" ry="18"/>
<text text-anchor="middle" x="761" y="-14.3" font-family="Times,serif" font-size="14.00" fill="gray">\SplEnum</text>
</g>
<!-- \\com\\xcitestudios\\Logging\\LogSeverity&#45;&gt;\\SplEnum -->
<g id="edge3" class="edge"><title>\\com\\xcitestudios\\Logging\\LogSeverity&#45;&gt;\\SplEnum</title>
<path fill="none" stroke="black" d="M976.923,-129.619C957.973,-106.222 921.989,-66.2889 882,-45 861.822,-34.2579 837.537,-27.7785 816.108,-23.8751"/>
<polygon fill="none" stroke="black" points="816.61,-20.4106 806.169,-22.2077 815.452,-27.3141 816.61,-20.4106"/>
</g>
</g>
</svg>
